<?xml version="1.0" encoding="utf-8"?>
<!-- Generator: Adobe Illustrator 23.0.1, SVG Export Plug-In . SVG Version: 6.00 Build 0)  -->
<svg version="1.1" id="Camada_1" xmlns="http://www.w3.org/2000/svg" xmlns:xlink="http://www.w3.org/1999/xlink" x="0px" y="0px"
	 viewBox="0 0 24 24" style="enable-background:new 0 0 24 24;" xml:space="preserve">
<style type="text/css">
	.st0{fill:#F7DF1E;}
</style>
<title>JavaScript icon</title>
<path class="st0" d="M0,0h24v24H0V0z M22.03,18.28c-0.17-1.09-0.89-2.01-3-2.87c-0.74-0.35-1.55-0.59-1.8-1.14
	c-0.09-0.33-0.1-0.51-0.05-0.7c0.15-0.65,0.92-0.84,1.51-0.66c0.39,0.12,0.75,0.42,0.98,0.9c1.03-0.68,1.03-0.68,1.75-1.13
	c-0.27-0.42-0.4-0.6-0.59-0.78c-0.63-0.7-1.47-1.06-2.83-1.03l-0.7,0.09c-0.68,0.16-1.32,0.52-1.71,1.01
	c-1.14,1.29-0.81,3.54,0.57,4.47c1.36,1.02,3.36,1.24,3.62,2.2c0.24,1.17-0.87,1.55-1.97,1.41c-0.81-0.18-1.26-0.59-1.75-1.34
	l-1.83,1.05c0.21,0.48,0.45,0.69,0.81,1.11c1.74,1.76,6.09,1.67,6.87-1c0.03-0.09,0.24-0.7,0.07-1.65
	C21.99,18.21,22.03,18.28,22.03,18.28z M13.05,11.03H10.8c0,1.94-0.01,3.86-0.01,5.8c0,1.23,0.06,2.36-0.14,2.71
	c-0.33,0.69-1.18,0.6-1.57,0.48c-0.4-0.2-0.6-0.47-0.83-0.85c-0.06-0.1-0.11-0.2-0.13-0.2L6.31,20.1c0.3,0.63,0.75,1.17,1.32,1.52
	c0.86,0.51,2,0.67,3.21,0.41c0.78-0.23,1.46-0.69,1.81-1.41c0.51-0.93,0.4-2.07,0.4-3.35c0.01-2.05,0-4.11,0-6.18
	C13.05,11.09,13.05,11.03,13.05,11.03z"/>
</svg>
