<?xml version="1.0" encoding="utf-8"?>
<!-- Generator: Adobe Illustrator 23.0.1, SVG Export Plug-In . SVG Version: 6.00 Build 0)  -->
<svg version="1.1" id="Camada_1" xmlns="http://www.w3.org/2000/svg" xmlns:xlink="http://www.w3.org/1999/xlink" x="0px" y="0px"
	 viewBox="0 0 24 24" style="enable-background:new 0 0 24 24;" xml:space="preserve">
<style type="text/css">
	.st0{fill:#347AB4;}
	.st1{fill:#FFCA1D;}
</style>
<title>Python icon</title>
<path class="st0" d="M14.25,0.18l0.9,0.2l0.73,0.26l0.59,0.3l0.45,0.32l0.34,0.34l0.25,0.34l0.16,0.33l0.1,0.3l0.04,0.26l0.02,0.2
	l-0.01,0.13V8.5l-0.05,0.63l-0.13,0.55l-0.21,0.46l-0.26,0.38l-0.3,0.31l-0.33,0.25l-0.35,0.19l-0.35,0.14l-0.33,0.1l-0.3,0.07
	l-0.26,0.04l-0.21,0.02H8.77l-0.69,0.05l-0.59,0.14l-0.5,0.22l-0.41,0.27l-0.33,0.32l-0.27,0.35l-0.2,0.36l-0.15,0.37l-0.1,0.35
	l-0.07,0.32l-0.04,0.27L5.4,14.87v3.06H3.17L2.96,17.9l-0.28-0.07l-0.32-0.12l-0.35-0.18l-0.36-0.26l-0.36-0.36l-0.35-0.46
	l-0.32-0.59l-0.28-0.73l-0.21-0.88l-0.14-1.05l-0.05-1.23L0,10.75l0.16-1.04L0.4,8.84l0.32-0.71l0.36-0.57l0.4-0.44L1.9,6.79
	l0.42-0.24l0.4-0.16l0.36-0.1L3.4,6.24l0.24-0.01H3.8l0.06,0.01h8.16V5.41H6.18L6.17,2.66L6.15,2.29L6.2,1.95l0.11-0.31l0.17-0.28
	L6.73,1.1l0.31-0.23l0.38-0.2l0.44-0.18l0.51-0.15l0.58-0.12l0.64-0.1l0.71-0.06l0.77-0.04L11.91,0l1.27,0.05L14.25,0.18z
	 M7.95,2.16L7.72,2.49L7.64,2.9l0.08,0.41l0.23,0.34l0.33,0.22l0.41,0.09L9.1,3.87l0.33-0.22l0.23-0.34L9.74,2.9L9.66,2.49
	L9.43,2.16L9.1,1.94L8.69,1.85L8.28,1.94L7.95,2.16z M21.04,6.11l0.28,0.06l0.32,0.12l0.35,0.18l0.36,0.27l0.36,0.35l0.35,0.47
	l0.32,0.59l0.28,0.73l0.21,0.88l0.14,1.04l0.05,1.23L24,13.26l-0.16,1.04l-0.24,0.86l-0.32,0.71l-0.36,0.57l-0.4,0.45l-0.42,0.33
	l-0.42,0.24l-0.4,0.16l-0.36,0.09l-0.32,0.05l-0.24,0.02l-0.16-0.01h-8.22v0.82h5.84l0.01,2.76l0.02,0.36l-0.05,0.34l-0.11,0.31
	l-0.17,0.29l-0.25,0.25l-0.31,0.24l-0.38,0.2l-0.44,0.17l-0.51,0.15l-0.58,0.13l-0.64,0.09l-0.71,0.07l-0.77,0.04L12.09,24
	l-1.27-0.04l-1.07-0.14l-0.9-0.2l-0.73-0.25l-0.59-0.3l-0.45-0.33L6.74,22.4l-0.25-0.34l-0.16-0.33l-0.1-0.3l-0.04-0.25l-0.02-0.2
	l0.01-0.13v-5.34l0.05-0.64l0.13-0.54l0.21-0.46l0.26-0.38l0.3-0.32l0.33-0.24l0.35-0.2l0.35-0.14l0.33-0.1l0.3-0.06l0.26-0.04
	l0.21-0.02l0.13-0.01h5.84l0.69-0.05l0.59-0.14l0.5-0.21l0.41-0.28l0.33-0.32l0.27-0.35l0.2-0.36l0.15-0.36l0.1-0.35l0.07-0.32
	l0.04-0.28l0.02-0.21V6.07h2.09l0.14,0.01L21.04,6.11z M14.57,20.36l-0.23,0.33l-0.08,0.41l0.08,0.41l0.23,0.33l0.33,0.23l0.41,0.08
	l0.41-0.08l0.33-0.23l0.23-0.33l0.08-0.41l-0.08-0.41l-0.23-0.33l-0.33-0.23l-0.41-0.08l-0.41,0.08L14.57,20.36z"/>
<path class="st1" d="M24.01,10.8l-0.14-1.04l-0.21-0.88l-0.28-0.73l-0.32-0.59l-0.35-0.47l-0.36-0.35l-0.36-0.27l-0.35-0.18
	l-0.32-0.12l-0.28-0.06l-0.21-0.03l-0.14-0.01H18.6v3.06l-0.02,0.21l-0.04,0.28l-0.07,0.32l-0.1,0.35l-0.15,0.36l-0.2,0.36
	l-0.27,0.35l-0.33,0.32l-0.41,0.28l-0.5,0.21l-0.59,0.14l-0.69,0.05H9.39l-0.13,0.01l-0.21,0.02l-0.26,0.04l-0.3,0.06l-0.33,0.1
	l-0.35,0.14l-0.35,0.2l-0.33,0.24l-0.3,0.32l-0.26,0.38l-0.21,0.46l-0.13,0.54l-0.05,0.64v5.34l-0.01,0.13l0.02,0.2l0.04,0.25
	l0.1,0.3l0.16,0.33l0.25,0.34l0.34,0.34l0.45,0.33l0.59,0.3l0.73,0.25l0.9,0.2l1.07,0.14L12.09,24l0.84-0.01l0.77-0.04l0.71-0.07
	l0.64-0.09l0.58-0.13l0.51-0.15l0.44-0.17l0.38-0.2l0.31-0.24l0.25-0.25l0.17-0.29l0.11-0.31l0.05-0.34l-0.02-0.36l-0.01-2.76h-5.84
	v-0.82h8.22l0.16,0.01l0.24-0.02l0.32-0.05l0.36-0.09l0.4-0.16l0.42-0.24l0.42-0.33l0.4-0.45l0.36-0.57l0.32-0.71l0.24-0.86
	L24,13.26l0.06-1.23L24.01,10.8z M15.31,20.05c0.58,0,1.05,0.47,1.05,1.05c0,0.58-0.47,1.05-1.05,1.05c-0.58,0-1.05-0.47-1.05-1.05
	C14.26,20.52,14.73,20.05,15.31,20.05z"/>
</svg>
