<?xml version="1.0" encoding="utf-8"?>
<!-- Generator: Adobe Illustrator 23.0.1, SVG Export Plug-In . SVG Version: 6.00 Build 0)  -->
<svg version="1.1" id="Camada_1" xmlns="http://www.w3.org/2000/svg" xmlns:xlink="http://www.w3.org/1999/xlink" x="0px" y="0px"
	 viewBox="0 0 1080 1080" style="enable-background:new 0 0 1080 1080;" xml:space="preserve">
<style type="text/css">
	.st0{fill:#FF7A00;}
</style>
<path class="st0" d="M973.23,836.31c-5.99-41.62-27.85-75.05-76.4-75.05c-41.54,0-75.22,33.68-75.22,75.22
	c0,6.35,0.8,12.52,2.28,18.41c0.83,4.02,1.3,8.17,1.3,12.43c0,33.8-27.4,61.2-61.2,61.2c-14.15,0-28.03-4.98-38.94-14
	c-10.77-8.9-18.31-21.43-21.05-35.14c-0.72-3.62-1.01-6.93-0.41-10.51c0.28-1.69,0.57-3.39,0.85-5.08
	c0.89-5.32,1.78-10.64,2.67-15.97c1.24-7.45,2.49-14.89,3.73-22.34c1.51-9.02,3.01-18.04,4.52-27.05
	c1.68-10.04,3.35-20.08,5.03-30.12c1.75-10.51,3.51-21.02,5.26-31.53c1.74-10.43,3.48-20.86,5.22-31.28
	c1.64-9.8,3.27-19.59,4.91-29.39c1.44-8.61,2.88-17.23,4.31-25.84c1.15-6.88,2.3-13.76,3.45-20.63c0.77-4.59,1.53-9.18,2.3-13.78
	c0.29-1.76,0.59-3.51,0.88-5.28c0.7-4.19,1-8.36,0.98-12.48c1.34-8.96,2.04-18.13,2.04-27.46c0-101.75-82.49-184.24-184.24-184.24
	c-28.77,0-56,6.6-80.26,18.36L538.69,84.6c6.62-39.65-20.4-77.51-60.06-84.14c-39.65-6.62-77.51,20.4-84.14,60.06
	c0,0-71.14,426.04-71.14,426.04c-2.48,14.88-7.7,9.84-10.47,5.78c0,0-1.81-3.07-1.81-3.07L241,370.41
	c-20.42-34.63-65.46-46.26-100.09-25.85c-34.63,20.42-46.26,65.46-25.85,100.09c27.37,46.44,54.75,92.87,82.12,139.31
	c36.67,62.2,68.86,145.82,156.18,139.23c38.68-2.92,75.48-28.81,88.56-65.33c5.2-14.52,6.77-30.11,8.56-45.58l5.15-30.84
	c1.69-6.46,3.92-12.74,7.03-18.73c11.7-22.57,35.65-38.3,61.01-40.07c25.36-1.77,51.26,10.49,65.98,31.22
	c6.46,9.1,10.87,19.84,11.53,30.98c0.44,7.5-0.8,14.98-2.05,22.39c-10.17,60.72-20.34,121.44-30.49,182.16
	c-2.69,16.09-5.38,32.18-8.07,48.27c-3.04,18.19-5.82,34.3-3.43,52.74c1.04,8.04,2.42,16.04,4.19,23.95
	c3.44,15.43,8.34,30.53,14.87,44.93c6.51,14.36,14.64,27.98,24.23,40.5c6.55,8.55,13.76,16.58,21.52,24.04
	c45.56,43.8,116.47,66.13,178.98,52.95c106.74-19.38,147.05-103.64,147.06-103.64C966.31,941.73,980.05,883.7,973.23,836.31z"/>
</svg>
